<?xml version="1.0" encoding="UTF-8"?>
<svg id="Layer_1" data-name="Layer 1" xmlns="http://www.w3.org/2000/svg" viewBox="0 0 89.55 39.43">
  <defs>
    <style>
      .cls-1 {
        fill: #010101;
        stroke: #000;
        stroke-miterlimit: 10;
        stroke-width: 2px;
      }
    </style>
  </defs>
  <path class="cls-1" d="M35.69,38.37l-1.71.06c-.92.03-1.75-.1-2.65-.31-2.45-.56-4.63-1.71-6.62-3.22l-1.08-.88-.79-.73-.97-1-.21-.74.69-.93c.77.12,1.42.39,2.09.72.53.26,1.07.39,1.64.53,2.2.54,4.48.56,6.62-.23,1.77-.65,3.33-1.54,4.73-2.82l.83-.77,1.38-1.45.97-1.17,2.08-3.16,1.84-3.47-3.1-4.95-1.14,2.22-.42.92-1.52,3-1.23,2.22-1.16,2.04-.78,1.53c-.18.36-.48.61-.86.62-.47.02-.81-.12-1.05-.52l-1-1.65-2.44-3.95-3.82-6.04-.95,1.5-1.94,3.22-.57.94-1.3,2.15-.84,1.48-.91,1.57-.57.94c-.17.28-.28.4-.59.49-.55.16-.95-.03-1.25-.51l-2.81-4.54-3.01-4.7-1.72-2.62-.45.68-.99,1.7-1.98,3.33-.58,1.04-.39.69-.55.93-.47.87-.81,1.42-.68,1.26c-.15.29-.42.57-.67.62-.32.06-.76-.07-.89-.37-.16-.38-.07-.82.13-1.16l3.75-6.54,3.36-5.78.65-.97c.22-.11.77-.13,1.01-.04.49.42.73,1,1.07,1.52l1.26,1.92,2,3.16,3.68,5.72,1.16-1.88,1.18-1.94,2.07-3.42.62-1.07,1.03-1.7.37-.7.49-.84c.13-.23.29-.49.53-.65.27-.18,1-.17,1.21.16l2.69,4.31.98,1.51,2.22,3.53,1.57,2.5.49-.81,2.04-3.64,2.09-4.2.96-1.97,1-1.92.58-1.02,1.73-2.53c.49-.71,1.03-1.39,1.65-1.99l.55-.53.79-.69.99-.71,1.62-.97.78-.37c1.36-.65,2.7-1.17,4.2-1.31l3.06-.29c1.42-.03,2.81.22,4.16.63l2.99,1.18c.56.22,1.03.54,1.52.89l1.67,1.16,1.27,1.14.96.93-.06.75-.37.63-.59.11-.65-.22c-1.45-.72-2.91-1.25-4.53-1.45-.72-.09-1.4-.17-2.11-.11-1.38.11-2.64.44-3.87,1l-.88.39c-1.38.62-2.58,1.5-3.72,2.49-1.01.86-1.85,1.79-2.63,2.87l-.13.11s-.07.03-.06,0l.05-.29c-.34.21-.63.65-.53,1.09l-.28.13c-.05.03-.03.18-.04.24l-.55.87-.38.63-.82,1.49c-.06.02-.22.07-.19.09s.16.12.16.12l-.32.13c-.05.02.04.14.09.21l-.34.62,2.5,4.03.82,1.29.52-1.17.83-1.75.28-.71c.95-2.03,2-3.93,3.05-5.89l1.25-2.32c.12-.23.4-.44.61-.51s.77.03.91.25l1.56,2.51,2.51,4.05,2.45,3.93.93,1.32,2.18-3.68,3.7-6.4,1-1.75c.14-.25.59-.4.82-.38.31.02.64.29.81.56l.56.88.93,1.45.74,1.14,4.2,6.52.94,1.39.09.14s.09-.02.14-.09l.83-1.46,1.57-2.88,3.77-7.14c.21-.41.39-.73.91-.63.39.07.67.38.65.9,0,.42-.32.83-.51,1.2l-.92,1.77-1.99,3.76-.76,1.38-1.69,3.28-1.23,2.22c-.35.14-.81.15-1.16.05l-.37-.44-.65-1.03-.58-.92-1.98-3.09-1.74-2.7-1.68-2.58-.88-1.34-1.14,1.89-1.02,1.72-1.47,2.53-2.3,4.08-.62,1.06-.5.77c-.17.26-.63.27-.88.21-.35-.09-.48-.32-.68-.63l-2.4-3.8-2.03-3.3-2.72-4.3-2.79,5.2-3,6.74-.81,1.6-1.18,2.11c-.57,1.03-1.24,1.97-2.06,2.82l-.91.95-1.56,1.37c-1.28,1.13-4.33,2.63-5.94,2.95l-1.16.23-1.54.18ZM46.13,15.82l.54-.94c1.11-1.91,2.4-3.68,4.01-5.21l.55-.52c1.13-1.07,2.43-1.85,3.79-2.59,1.65-.9,4.29-1.72,6.1-1.72h.98s2.21.25,2.21.25c-1.68-1.08-4.34-2.1-6.28-2.29-2.22-.21-5.43.2-7.43,1.17l-1.26.61c-1.1.53-3.02,2.02-3.83,3.02l-1.23,1.52-2,3.05,1.01,1.56,2.11,3.39.73-1.31ZM50.05,12.86l.15-.31s-.15-.06-.17-.02l-.09.17.1.16ZM28.66,34.19c-.51,0-.92-.14-1.4-.16l-.86-.04,1.47.96,1.7.78c1.34.61,2.74.97,4.23.92l1.76-.06c3.57-.29,6.77-1.91,9.29-4.44,1.43-1.43,2.53-3.07,3.47-4.87l.67-1.29-1.17-1.88-2.28-3.66-.53,1.09-.64,1.08-.53.9-.77,1.45-.43.64-.85,1.28-1.36,1.58c-1.9,2.21-5.11,4.62-7.95,5.27l-.65.15-.94.17c-.35.06-.66.17-1.03.17l-1.22-.02Z"/>
  <path class="cls-1" d="M50.05,12.86l-.1-.16.09-.17s.19-.02.17.02l-.15.31Z"/>
</svg>