<?xml version="1.0" encoding="UTF-8"?>
<svg id="Layer_1" data-name="Layer 1" xmlns="http://www.w3.org/2000/svg" viewBox="0 0 48.04 48.04">
  <defs>
    <style>
      .cls-1 {
        fill: #010101;
        fill-rule: evenodd;
      }
    </style>
  </defs>
  <g id="Page-1">
    <g id="Dribbble-Light-Preview">
      <g id="icons">
        <path id="brightness-_859_" data-name="brightness-[#859]" class="cls-1" d="M10.43,7.04c.94.94.94,2.46,0,3.4-.47.47-1.08.7-1.7.7s-1.23-.23-1.7-.7c-.94-.94-.94-2.46,0-3.4.47-.47,1.08-.7,1.7-.7s1.23.24,1.7.7M41.01,37.61c.94.94.94,2.46,0,3.4-.47.47-1.08.7-1.7.7s-1.23-.23-1.7-.7c-.94-.94-.94-2.46,0-3.4.47-.47,1.08-.7,1.7-.7s1.23.24,1.7.7M26.42,45.64c0,1.33-1.08,2.4-2.4,2.4s-2.4-1.08-2.4-2.4,1.08-2.4,2.4-2.4,2.4,1.08,2.4,2.4M21.62,2.4c0-1.33,1.08-2.4,2.4-2.4s2.4,1.08,2.4,2.4-1.08,2.4-2.4,2.4-2.4-1.08-2.4-2.4M10.43,37.61c.94.94.94,2.46,0,3.4-.47.47-1.08.7-1.7.7s-1.23-.23-1.7-.7c-.94-.94-.94-2.46,0-3.4.47-.47,1.08-.7,1.7-.7s1.23.24,1.7.7M41.01,7.04c.94.94.94,2.46,0,3.4-.47.47-1.08.7-1.7.7s-1.23-.23-1.7-.7c-.94-.94-.94-2.46,0-3.4.47-.47,1.08-.7,1.7-.7s1.23.24,1.7.7M48.04,24.02c0,1.33-1.08,2.4-2.4,2.4s-2.4-1.08-2.4-2.4,1.08-2.4,2.4-2.4,2.4,1.08,2.4,2.4M4.8,24.02c0,1.33-1.08,2.4-2.4,2.4s-2.4-1.08-2.4-2.4,1.08-2.4,2.4-2.4,2.4,1.08,2.4,2.4M24.02,28.83c-2.65,0-4.8-2.15-4.8-4.8s2.15-4.8,4.8-4.8,4.8,2.15,4.8,4.8-2.15,4.8-4.8,4.8M24.02,14.41c-5.31,0-9.61,4.3-9.61,9.61s4.3,9.61,9.61,9.61,9.61-4.3,9.61-9.61-4.3-9.61-9.61-9.61"/>
      </g>
    </g>
  </g>
</svg>