<?xml version="1.0" encoding="UTF-8"?>
<svg id="Layer_1" data-name="Layer 1" xmlns="http://www.w3.org/2000/svg" viewBox="0 0 41.46 41.46">
  <defs>
    <style>
      .cls-1 {
        fill: #010101;
        fill-rule: evenodd;
      }
    </style>
  </defs>
  <g id="Page-1">
    <g id="Dribbble-Light-Preview">
      <g id="icons">
        <path id="arrow_up_outside-_263_" data-name="arrow_up_outside-[#263]" class="cls-1" d="M39.39,14.74h-10.36v-5.88c0-.94,1.12-1.41,1.77-.75l3.49,3.54c.81.82,2.12.82,2.93,0,.81-.82.81-2.15,0-2.98l-7.33-7.45c-1.62-1.64-4.24-1.64-5.86,0-1.17,1.19-1.42,1.44-7.33,7.45-.81.82-.81,2.16,0,2.98.81.82,2.12.82,2.93,0l3.48-3.54c.65-.66,1.77-.19,1.77.74v5.88H2.07c-1.14,0-2.07.94-2.07,2.11s.93,2.11,2.07,2.11h37.31c1.14,0,2.07-.94,2.07-2.11s-.93-2.11-2.07-2.11M2.07,27.38h10.36v5.22c0,.94-1.12,1.41-1.77.75l-3.49-3.54c-.81-.82-2.12-.82-2.93,0-.81.82-.81,2.15,0,2.98l7.33,7.45c1.62,1.64,4.24,1.64,5.86,0,1.18-1.2,1.42-1.44,7.33-7.45.81-.82.81-2.16,0-2.98-.81-.82-2.12-.82-2.93,0l-3.48,3.54c-.65.66-1.77.19-1.77-.74v-5.22h22.8c1.14,0,2.07-.94,2.07-2.11s-.93-2.11-2.07-2.11H2.07c-1.14,0-2.07.94-2.07,2.11s.93,2.11,2.07,2.11"/>
      </g>
    </g>
  </g>
</svg>