<?xml version="1.0" encoding="UTF-8"?>
<svg id="Layer_1" data-name="Layer 1" xmlns="http://www.w3.org/2000/svg" viewBox="0 0 46.22 46.22">
  <defs>
    <style>
      .cls-1 {
        fill: #010101;
        fill-rule: evenodd;
      }
    </style>
  </defs>
  <g id="Page-1">
    <g id="Dribbble-Light-Preview">
      <g id="icons">
        <path id="planet_system-_1299_" data-name="planet_system-[#1299]" class="cls-1" d="M36.98,6.93c0-2.99,4.62-3.12,4.62,0s-4.62,3.11-4.62,0M23.11,41.6c-10.19,0-18.49-8.29-18.49-18.49S12.92,4.62,23.11,4.62c3.38,0,6.54.93,9.26,2.51.11,3.66,3.05,6.6,6.71,6.71,1.59,2.73,2.51,5.89,2.51,9.26,0,10.19-8.29,18.49-18.49,18.49M46.22,6.93c0-3.83-3.1-6.93-6.93-6.93-2.21,0-4.16,1.05-5.42,2.66-3.21-1.69-6.87-2.66-10.75-2.66C10.35,0,0,10.35,0,23.11s10.35,23.11,23.11,23.11,23.11-10.35,23.11-23.11c0-3.88-.97-7.54-2.66-10.75,1.61-1.27,2.66-3.21,2.66-5.42M23.11,30.04c-3.82,0-6.93-3.11-6.93-6.93s3.11-6.93,6.93-6.93,6.93,3.11,6.93,6.93-3.11,6.93-6.93,6.93M23.11,11.55c-6.38,0-11.55,5.17-11.55,11.55s5.17,11.55,11.55,11.55,11.55-5.17,11.55-11.55-5.17-11.55-11.55-11.55"/>
      </g>
    </g>
  </g>
</svg>