<?xml version="1.0" encoding="UTF-8"?>
<svg id="Layer_1" data-name="Layer 1" xmlns="http://www.w3.org/2000/svg" viewBox="0 0 554.38 144.99">
  <defs>
    <style>
      .cls-1 {
        fill: #171617;
      }
    </style>
  </defs>
  <g>
    <polygon class="cls-1" points="411.48 113.03 411.45 143.15 319.1 143.14 319.09 2.31 353.27 2.26 353.26 113.01 411.48 113.03"/>
    <path class="cls-1" d="M554.38,72.5c0,40.04-32.46,72.5-72.5,72.5s-72.5-32.46-72.5-72.5S441.85,0,481.88,0s72.5,32.46,72.5,72.5ZM520.92,72.57c0-21.56-17.48-39.04-39.04-39.04s-39.04,17.48-39.04,39.04,17.48,39.04,39.04,39.04,39.04-17.48,39.04-39.04Z"/>
  </g>
  <g>
    <polygon class="cls-1" points="137.08 113.63 137.19 143.14 2.05 143.13 61.61 83.28 18.15 83.05 40.71 60.04 67.91 32.46 0 32.32 .03 2.38 140.15 2.39 105.9 37.69 83.72 60.8 128.52 60.95 120.56 68.83 75.6 113.57 137.08 113.63"/>
    <polygon class="cls-1" points="245.54 91.23 209.42 143.17 168.45 143.06 211.14 83.09 187.88 51.65 150.61 2.4 195.23 2.34 230.45 50.6 265.16 2.37 307.87 2.39 245.54 91.23"/>
  </g>
</svg>