<?xml version="1.0" encoding="UTF-8"?>
<svg id="Layer_1" xmlns="http://www.w3.org/2000/svg" version="1.1" viewBox="0 0 792 612">
  <!-- Generator: Adobe Illustrator 30.2.1, SVG Export Plug-In . SVG Version: 2.1.1 Build 1)  -->
  <defs>
    <style>
      .st0 {
        fill: #ffffff;
      }
    </style>
  </defs>
  <path class="st0" d="M62.42,398.55v-30.94l101.8-118.46h-98.63v-35.7h150.98v30.94l-101.8,118.46h101.8v35.7H62.42Z"/>
  <path class="st0" d="M417.65,398.55v-185.09h40.72v148.07h92.28v37.02h-133Z"/>
  <path class="st0" d="M651.01,401.72c-57.12,0-98.1-42.57-98.1-95.19v-.53c0-52.62,41.51-95.72,98.63-95.72s98.1,42.57,98.1,95.19v.53c0,52.62-41.51,95.72-98.63,95.72ZM707.07,306c0-31.73-23.27-58.17-56.06-58.17s-55.53,25.91-55.53,57.64v.53c0,31.73,23.27,58.17,56.06,58.17s55.53-25.91,55.53-57.64v-.53Z"/>
  <polygon class="st0" points="360.68 213.46 406.95 213.46 287.5 398.55 241.7 398.55 360.68 213.46"/>
  <polygon class="st0" points="315.38 261.66 286.73 213.45 239.13 213.45 292.57 297.68 315.38 261.66"/>
</svg>